# xmcd
#
# Track frame offsets:
#	150
#	12207
#	25091
#	37299
#	49587
#	61335
#	74243
#	86871
#	97659
#	112991
#	131423
#	143379
#	155723
#	170495
#	181227
#	192711
#	206523
#	219563
#	233063
#	248359
#	259011
#
# Disc length: 3760 seconds
# Revision: 0
# Processed by: cddbd v1.5.2PL0 Copyright (c) Steve Scherf et al.
# Submitted via: dBpowerAMP V12.0
#
DISCID=240eae15
DTITLE=James Royal - The Essential Hits, Singles and More
DYEAR=1900
DGENRE=
TTITLE0=Call My Name
TTITLE1=When It Comes To My Baby
TTITLE2=Sitting in the Station
TTITLE3=Take Me Like I Am
TTITLE4=Hey Little Boy
TTITLE5=Thru the Love
TTITLE6=Time Hangs on My Mind
TTITLE7=Anna-Lee
TTITLE8=I've Got Something Bad on My Mind
TTITLE9=She's Independent
TTITLE10=Carolina
TTITLE11=Big Heat (On the Loose)
TTITLE12=This is My Woman
TTITLE13=Noah
TTITLE14=Little Red Wagon
TTITLE15=A Woman Called Sorrow
TTITLE16=Fire (Keep Away From My Heart)
TTITLE17=House of Jack
TTITLE18=It's All in the Game
TTITLE19=You'd Better Run
TTITLE20=Send Out Love
EXTD=
EXTT0=
EXTT1=
EXTT2=
EXTT3=
EXTT4=
EXTT5=
EXTT6=
EXTT7=
EXTT8=
EXTT9=
EXTT10=
EXTT11=
EXTT12=
EXTT13=
EXTT14=
EXTT15=
EXTT16=
EXTT17=
EXTT18=
EXTT19=
EXTT20=
PLAYORDER=
